<svg width="804" height="705" viewBox="0 0 804 705" fill="none" xmlns="http://www.w3.org/2000/svg">
<path d="M624.249 60.2759L648.755 74.0606L693.172 153.705L699.299 415.615V541.209L634.97 573.373L362.339 473.817L331.707 447.779L611.996 64.8708L615.059 63.3391L624.249 60.2759Z" fill="#E0F4FF"/>
<path d="M402.162 351.286L648.755 536.613L657.945 634.638L653.35 692.84L622.717 702.03L607.401 697.435L331.707 447.779L402.162 351.286Z" fill="#0F82CF"/>
<path d="M641.097 84.2526C634.97 60.9718 621.185 61.2971 611.996 64.8709C622.717 52.6178 635.481 58.2149 642.628 59.7467L780.475 128.67C797.629 134.797 802.939 150.624 803.45 157.771V601.945C802.224 616.648 793.749 626.451 789.665 629.514L641.097 703.033C621.492 709.159 608.422 699.477 604.337 694.372C626.393 707.85 638.033 689.758 641.097 678.526V84.2526Z" fill="#3CA9F2"/>
<path d="M179.201 644.723L154.695 630.939L110.278 551.294L104.151 289.385L104.151 163.791L168.48 131.626L441.11 231.183L471.743 257.22L191.454 640.128L188.391 641.66L179.201 644.723Z" fill="#E0F4FF"/>
<path d="M402.5 352L156.181 167.416L146.991 69.3918L151.586 11.1898L182.219 1.99997L197.535 6.59486L472 256.5L402.5 352Z" fill="#0F82CF"/>
<path d="M162.353 620.747C168.48 644.028 182.264 643.702 191.454 640.129C180.733 652.382 167.969 646.785 160.821 645.253L22.9746 576.329C5.82027 570.203 0.510613 554.376 6.98328e-05 547.228L0.000108664 103.055C1.22542 88.3511 9.70044 78.5486 13.7848 75.4853L162.353 1.96698C181.958 -4.15955 195.028 5.52222 199.112 10.6276C177.057 -2.85071 165.416 15.2411 162.353 26.4731L162.353 620.747Z" fill="#3CA9F2"/>
</svg>
