<svg width="369" height="328" viewBox="0 0 369 328" fill="none" xmlns="http://www.w3.org/2000/svg">
<path d="M281.298 34.5063L283.977 35.8133L286.656 39.8324L287.996 43.8515V54.5691V73.3248V187.199V228.729V238.777L206.945 177.821L183.5 160.405L275.269 35.1762L276.609 34.5063H281.298Z" stroke="#3CA9F2" stroke-width="5"/>
<g filter="url(#filter0_d_315_28)">
<path d="M183.5 160.438L287.996 238.777V282.987V303.082L287.326 305.092L286.656 307.101L284.647 309.781L281.968 311.823L278.618 312.46L273.26 311.823L152.687 202.638L183.5 160.438Z" stroke="#3CA9F2" stroke-width="5" shape-rendering="crispEdges"/>
</g>
<g filter="url(#filter1_d_315_28)">
<path d="M287.996 43.6526C285.317 33.4709 279.288 33.6132 275.269 35.1761C279.958 29.8173 285.54 32.2652 288.666 32.9351L348.952 63.0783C356.454 65.7577 358.777 72.6794 359 75.8054V270.061C358.464 276.492 354.757 280.779 352.971 282.118L287.996 314.271C279.422 316.95 273.706 312.716 271.92 310.483C281.565 316.378 286.656 308.466 287.996 303.553V43.6526Z" stroke="#3CA9F2" stroke-width="5" shape-rendering="crispEdges"/>
</g>
<path d="M85.7023 285.625L83.0229 284.318L80.3435 280.299L79.0038 276.28L79.0038 265.562L79.0038 246.806L79.0039 132.932L79.0039 91.4018L79.0039 81.3541L160.055 142.31L183.5 159.726L91.7309 284.955L90.3913 285.625L85.7023 285.625Z" stroke="#3CA9F2" stroke-width="5"/>
<path d="M183.5 159.694L79.0036 81.3547L79.0036 37.1447L79.0036 17.0493L79.6735 15.0398L80.3433 13.0302L82.3529 10.3509L85.0323 8.30861L88.3815 7.67148L93.7403 8.30861L214.313 117.494L183.5 159.694Z" stroke="#3CA9F2" stroke-width="5"/>
<g filter="url(#filter2_d_315_28)">
<path d="M79.0037 276.479C81.6831 286.66 87.7118 286.518 91.7308 284.955C87.0419 290.314 81.4599 287.866 78.3339 287.196L18.0477 257.053C10.5454 254.373 8.22323 247.452 7.99995 244.326L7.99997 50.07C8.53584 43.6395 12.2423 39.3525 14.0286 38.0128L79.0038 5.86014C87.5778 3.18075 93.2938 7.41501 95.0801 9.64783C85.4343 3.75317 80.3435 11.6655 79.0038 16.5777L79.0037 276.479Z" stroke="#3CA9F2" stroke-width="5" shape-rendering="crispEdges"/>
</g>
<defs>
<filter id="filter0_d_315_28" x="144.341" y="155.918" width="151.155" height="168.07" filterUnits="userSpaceOnUse" color-interpolation-filters="sRGB">
<feFlood flood-opacity="0" result="BackgroundImageFix"/>
<feColorMatrix in="SourceAlpha" type="matrix" values="0 0 0 0 0 0 0 0 0 0 0 0 0 0 0 0 0 0 127 0" result="hardAlpha"/>
<feOffset dy="4"/>
<feGaussianBlur stdDeviation="2.5"/>
<feComposite in2="hardAlpha" operator="out"/>
<feColorMatrix type="matrix" values="0 0 0 0 0 0 0 0 0 0 0 0 0 0 0 0 0 0 0.25 0"/>
<feBlend mode="normal" in2="BackgroundImageFix" result="effect1_dropShadow_315_28"/>
<feBlend mode="normal" in="SourceGraphic" in2="effect1_dropShadow_315_28" result="shape"/>
</filter>
<filter id="filter1_d_315_28" x="264.968" y="27.2949" width="103.532" height="300.34" filterUnits="userSpaceOnUse" color-interpolation-filters="sRGB">
<feFlood flood-opacity="0" result="BackgroundImageFix"/>
<feColorMatrix in="SourceAlpha" type="matrix" values="0 0 0 0 0 0 0 0 0 0 0 0 0 0 0 0 0 0 127 0" result="hardAlpha"/>
<feOffset dx="1" dy="4"/>
<feGaussianBlur stdDeviation="3"/>
<feComposite in2="hardAlpha" operator="out"/>
<feColorMatrix type="matrix" values="0 0 0 0 0 0 0 0 0 0 0 0 0 0 0 0 0 0 0.25 0"/>
<feBlend mode="normal" in2="BackgroundImageFix" result="effect1_dropShadow_315_28"/>
<feBlend mode="normal" in="SourceGraphic" in2="effect1_dropShadow_315_28" result="shape"/>
</filter>
<filter id="filter2_d_315_28" x="0.5" y="0.496338" width="103.532" height="300.34" filterUnits="userSpaceOnUse" color-interpolation-filters="sRGB">
<feFlood flood-opacity="0" result="BackgroundImageFix"/>
<feColorMatrix in="SourceAlpha" type="matrix" values="0 0 0 0 0 0 0 0 0 0 0 0 0 0 0 0 0 0 127 0" result="hardAlpha"/>
<feOffset dx="1" dy="4"/>
<feGaussianBlur stdDeviation="3"/>
<feComposite in2="hardAlpha" operator="out"/>
<feColorMatrix type="matrix" values="0 0 0 0 0 0 0 0 0 0 0 0 0 0 0 0 0 0 0.25 0"/>
<feBlend mode="normal" in2="BackgroundImageFix" result="effect1_dropShadow_315_28"/>
<feBlend mode="normal" in="SourceGraphic" in2="effect1_dropShadow_315_28" result="shape"/>
</filter>
</defs>
</svg>
